<svg width="800" height="420" viewBox="0 0 800 420" fill="none" xmlns="http://www.w3.org/2000/svg">
<g filter="url(#filter0_d_147_17)">
<path d="M19.9609 118.156C22.6797 118.156 24.9297 119.234 26.7109 121.391C33.4609 129.547 38.3828 142.109 41.4766 159.078C54.2266 136.016 70.6797 123.031 90.8359 120.125C94.0234 119.656 97.1641 119.422 100.258 119.422C111.508 119.422 121.445 122 130.07 127.156C138.695 132.312 145.773 139.109 151.305 147.547C156.836 155.984 160.586 165.078 162.555 174.828C163.867 181.109 164.523 187.531 164.523 194.094C164.523 214.812 157.914 236.703 144.695 259.766C143.008 262.672 140.43 264.125 136.961 264.125C134.055 264.125 131.43 262.766 129.086 260.047C126.836 257.234 126.742 254.094 128.805 250.625C140.43 230.375 146.242 211.484 146.242 193.953C146.242 188.703 145.727 183.594 144.695 178.625C143.195 171.406 140.43 164.703 136.398 158.516C132.461 152.328 127.398 147.359 121.211 143.609C115.117 139.766 108.086 137.844 100.117 137.844C97.9609 137.844 95.7578 137.984 93.5078 138.266C84.2266 139.578 76.3047 143.656 69.7422 150.5C63.1797 157.344 57.8828 165.641 53.8516 175.391C49.9141 185.047 47.0547 194.891 45.2734 204.922C45.2734 206.141 45.2734 207.359 45.2734 208.578C45.2734 222.078 44.5703 235.672 43.1641 249.359L42.6016 254.844C42.3203 257.469 41.2891 259.438 39.5078 260.75C37.7266 261.969 35.8047 262.578 33.7422 262.578C31.4922 262.578 29.3828 261.875 27.4141 260.469C25.5391 259.062 24.5547 256.953 24.4609 254.141C24.2734 249.922 24.1797 245.797 24.1797 241.766C24.1797 227.984 25.1172 215.281 26.9922 203.656C26.6172 182.094 24.9297 165.922 21.9297 155.141C19.0234 144.453 16.3516 137.609 13.9141 134.609C11.6641 131.797 10.5391 129.312 10.5391 127.156C10.5391 124.438 11.5234 122.281 13.4922 120.688C15.4609 119 17.6172 118.156 19.9609 118.156ZM195.742 239.164C197.102 244.039 199.727 247.859 203.617 250.625C207.555 253.391 212.5 254.773 218.453 254.773C226.422 254.773 235.68 252.172 246.227 246.969C246.883 246.641 247.562 246.477 248.266 246.477C249.484 246.477 250.539 246.898 251.43 247.742C252.367 248.586 252.836 249.641 252.836 250.906C252.836 252.922 251.992 254.352 250.305 255.195C244.961 257.82 239.523 259.93 233.992 261.523C228.461 263.117 223.117 263.914 217.961 263.914C212.664 263.914 207.719 262.93 203.125 260.961C198.578 258.992 194.688 255.711 191.453 251.117C189.625 248.539 188.219 245.797 187.234 242.891C186.25 239.984 185.758 236.727 185.758 233.117C185.758 231.523 185.852 229.859 186.039 228.125C187.117 219.172 190.844 211.508 197.219 205.133C205.469 196.883 216.32 192.758 229.773 192.758C234.93 192.758 239.453 193.766 243.344 195.781C247.234 197.75 250 200.562 251.641 204.219C252.531 206.234 252.977 208.367 252.977 210.617C252.977 214.461 251.969 217.859 249.953 220.812C247.984 223.719 245.172 226.414 241.516 228.898C231.25 235.836 216.367 239.305 196.867 239.305C196.586 239.305 196.211 239.258 195.742 239.164ZM194.969 230.586C195.625 230.305 196.258 230.164 196.867 230.164C214.539 230.164 227.734 227.211 236.453 221.305C238.891 219.664 240.742 218 242.008 216.312C243.273 214.578 243.906 212.586 243.906 210.336C243.906 209.023 243.602 207.969 242.992 207.172C242.43 206.375 241.68 205.625 240.742 204.922C238.117 202.906 234.484 201.898 229.844 201.898C223.609 201.898 217.938 203.07 212.828 205.414C207.719 207.711 203.57 211.016 200.383 215.328C197.242 219.594 195.438 224.68 194.969 230.586ZM271.82 263.562C270.508 263.562 269.383 262.93 268.445 261.664C267.508 260.352 267.039 259.18 267.039 258.148C267.039 257.258 267.18 256.344 267.461 255.406C267.789 254.469 267.977 253.578 268.023 252.734C268.164 250.156 268.422 246.688 268.797 242.328C269.172 237.922 269.359 233.656 269.359 229.531C269.359 226.531 269.312 223.273 269.219 219.758C268.938 209.398 268.516 203.094 267.953 200.844C267.719 199.859 267.602 198.969 267.602 198.172C267.602 196.812 267.977 195.711 268.727 194.867C269.523 193.977 270.625 193.531 272.031 193.531C273.109 193.531 274.047 193.883 274.844 194.586C275.641 195.289 276.156 196.086 276.391 196.977C277.422 200.867 278.031 206.844 278.219 214.906C285.062 201.453 294.32 194 305.992 192.547C306.18 192.547 306.367 192.547 306.555 192.547C307.961 192.547 309.039 193.062 309.789 194.094C310.586 195.078 310.984 196.156 310.984 197.328C310.984 198.359 310.68 199.297 310.07 200.141C309.461 200.984 308.477 201.477 307.117 201.617C295.211 203.117 286.445 213.781 280.82 233.609C279.461 238.438 278.43 243.406 277.727 248.516C277.586 250.625 277.445 252.289 277.305 253.508C277.211 254.727 277.164 255.875 277.164 256.953C277.164 257.562 277.211 258.055 277.305 258.43C277.398 258.805 277.445 259.133 277.445 259.414C277.445 260.445 276.742 261.406 275.336 262.297C273.977 263.141 272.805 263.562 271.82 263.562ZM394.094 233.047C394.094 236.516 394.258 240.289 394.586 244.367C394.914 248.398 395.078 251.961 395.078 255.055C395.078 256.883 394.703 258.477 393.953 259.836C393.25 261.148 391.961 261.805 390.086 261.805C388.82 261.805 387.789 261.312 386.992 260.328C386.195 259.344 385.75 258.219 385.656 256.953C385.562 255.734 385.469 254.305 385.375 252.664C385.281 251.023 385.188 249.195 385.094 247.18C378.578 257.492 370.258 262.648 360.133 262.648C353.336 262.648 347.312 261.148 342.062 258.148C336.859 255.148 332.758 251 329.758 245.703C326.805 240.359 325.328 234.219 325.328 227.281C325.328 222.031 326.219 216.922 328 211.953C329.781 206.938 332.195 202.602 335.242 198.945C340.211 192.945 346.609 189.945 354.438 189.945C355.281 189.945 356.148 189.969 357.039 190.016C366.039 190.719 375.203 195.945 384.531 205.695C384.531 202.789 384.531 199.391 384.531 195.5C384.531 191.562 384.555 187.156 384.602 182.281L384.742 165.125C384.742 163.672 385.211 162.57 386.148 161.82C387.133 161.07 388.188 160.695 389.312 160.695C390.484 160.695 391.539 161.07 392.477 161.82C393.414 162.57 393.883 163.695 393.883 165.195L393.742 182.422C393.695 188.75 393.648 194.516 393.602 199.719C393.602 204.875 393.602 209.469 393.602 213.5C393.602 218.609 393.625 222.688 393.672 225.734C393.953 226.578 394.094 228.055 394.094 230.164C394.094 230.633 394.094 231.102 394.094 231.57C394.094 232.039 394.094 232.531 394.094 233.047ZM360.203 253.508C369.812 253.508 377.406 245.844 382.984 230.516C383.359 229.531 383.664 228.688 383.898 227.984C384.133 227.281 384.344 226.695 384.531 226.227V219.828C374.359 206.75 364.867 199.836 356.055 199.086C355.633 199.039 355.211 199.016 354.789 199.016C350.664 199.016 347.078 200.398 344.031 203.164C340.984 205.883 338.641 209.375 337 213.641C335.359 217.859 334.539 222.266 334.539 226.859C334.539 234.734 336.836 241.156 341.43 246.125C346.023 251.047 352.281 253.508 360.203 253.508ZM471.297 214.133C471.438 214.648 471.508 215.188 471.508 215.75C471.508 216.828 471.297 218.07 470.875 219.477C470.172 226.883 469.82 233.492 469.82 239.305C469.82 247.414 470.5 254 471.859 259.062C472 259.531 472.07 259.977 472.07 260.398C472.07 261.711 471.555 262.742 470.523 263.492C469.539 264.289 468.461 264.688 467.289 264.688C466.398 264.688 465.555 264.43 464.758 263.914C463.961 263.398 463.398 262.555 463.07 261.383C461.617 255.992 460.844 249.148 460.75 240.852C456.297 248.023 451.516 253.672 446.406 257.797C443.312 260.281 440.125 261.688 436.844 262.016C434.875 262.578 432.953 262.859 431.078 262.859C428.406 262.859 425.969 262.367 423.766 261.383C421.562 260.398 419.664 259.156 418.07 257.656C415.211 254.984 412.984 251.539 411.391 247.32C409.844 243.055 409.07 238.133 409.07 232.555C409.07 225.383 410.734 218.539 414.062 212.023C418.938 202.461 426.344 196.086 436.281 192.898C440.078 191.633 443.734 191 447.25 191C451.656 191 455.805 192.031 459.695 194.094C466.492 197.703 470.359 204.383 471.297 214.133ZM462.156 214.766C461.734 210.266 460.258 206.703 457.727 204.078C455.242 201.453 451.844 200.141 447.531 200.141C444.953 200.141 442.141 200.633 439.094 201.617C431.547 204.008 426.039 208.625 422.57 215.469C419.664 221.234 418.211 226.977 418.211 232.695C418.211 236.727 418.75 240.336 419.828 243.523C420.906 246.711 422.289 249.102 423.977 250.695C426.086 252.664 428.477 253.648 431.148 253.648C432.039 253.648 432.883 253.555 433.68 253.367C434.523 253.133 435.461 252.969 436.492 252.875C437.289 252.781 438.859 251.82 441.203 249.992C443.547 248.117 446.031 245.469 448.656 242.047C451.328 238.625 453.836 234.781 456.18 230.516C458.523 226.25 460.422 221.961 461.875 217.648C461.922 217.18 461.969 216.711 462.016 216.242C462.062 215.727 462.109 215.234 462.156 214.766ZM493.305 159.711C494.477 159.711 495.508 160.203 496.398 161.188C497.336 162.125 497.758 163.227 497.664 164.492C496.867 183.945 496.258 200.422 495.836 213.922C495.414 227.422 495.203 237.969 495.203 245.562C495.203 252.172 495.367 256.531 495.695 258.641C495.742 258.922 495.766 259.18 495.766 259.414C495.766 260.82 495.273 261.898 494.289 262.648C493.305 263.398 492.227 263.773 491.055 263.773C490.07 263.773 489.133 263.469 488.242 262.859C487.398 262.25 486.883 261.289 486.695 259.977C486.32 257.586 486.133 252.688 486.133 245.281C486.133 229.531 486.953 202.461 488.594 164.07C488.641 162.852 489.133 161.82 490.07 160.977C491.055 160.133 492.133 159.711 493.305 159.711ZM563.688 197.82L564.531 208.367C565.047 216.852 565.305 224.82 565.305 232.273C565.305 263.633 560.758 285.523 551.664 297.945C549.273 301.227 546.531 303.641 543.438 305.188C540.391 306.734 537.133 307.508 533.664 307.508C529.164 307.508 524.406 306.289 519.391 303.852C517.797 303.055 517 301.672 517 299.703C517 298.344 517.633 297.125 518.898 296.047C520.164 294.969 521.688 294.828 523.469 295.625C527.172 297.5 530.5 298.438 533.453 298.438C535.516 298.438 537.391 297.992 539.078 297.102C542.312 295.414 544.984 292.391 547.094 288.031C549.25 283.672 550.961 278.516 552.227 272.562C553.539 266.609 554.477 260.398 555.039 253.93C555.648 247.414 556 241.18 556.094 235.227C555.016 238.227 553.633 241.391 551.945 244.719C550.258 248 548.266 251.094 545.969 254C543.719 256.906 541.211 259.273 538.445 261.102C535.727 262.93 532.75 263.844 529.516 263.844C525.672 263.844 522.414 262.648 519.742 260.258C517.117 257.82 514.891 254.375 513.062 249.922C509.828 242.141 508.211 231.875 508.211 219.125C508.211 212.234 508.68 204.641 509.617 196.344C509.758 195.031 510.273 194.07 511.164 193.461C512.055 192.805 513.039 192.477 514.117 192.477C515.242 192.477 516.273 192.852 517.211 193.602C518.195 194.305 518.688 195.383 518.688 196.836C518.688 197.023 518.688 197.211 518.688 197.398C517.797 205.461 517.352 212.75 517.352 219.266C517.352 230.75 518.734 239.844 521.5 246.547C523.75 252.031 526.445 254.773 529.586 254.773C532.445 254.773 535.656 252.477 539.219 247.883C547.422 237.242 552.531 220.602 554.547 197.961C554.641 196.648 555.133 195.664 556.023 195.008C556.961 194.305 557.969 193.953 559.047 193.953C560.125 193.953 561.109 194.281 562 194.938C562.938 195.594 563.5 196.555 563.688 197.82ZM616.141 260.75C616.141 262.016 615.672 263.094 614.734 263.984C613.797 264.875 612.719 265.32 611.5 265.32C610.75 265.32 610.047 265.133 609.391 264.758C603.344 261.523 599.688 252.688 598.422 238.25C598.141 235.109 597.93 231.734 597.789 228.125C597.648 224.469 597.578 220.555 597.578 216.383C597.578 212.352 597.648 207.945 597.789 203.164C595.492 203.164 593.195 203.164 590.898 203.164C588.602 203.117 586.281 203.094 583.938 203.094C582.719 203.094 581.641 202.625 580.703 201.688C579.812 200.703 579.367 199.602 579.367 198.383C579.367 197.258 579.812 196.25 580.703 195.359C581.641 194.422 582.719 193.953 583.938 193.953L598.07 194.023C598.117 192.617 598.188 190.461 598.281 187.555C598.375 184.648 598.469 181.555 598.562 178.273C598.656 174.992 598.703 172.109 598.703 169.625C598.703 168.875 598.68 168.195 598.633 167.586C598.633 166.977 598.633 166.414 598.633 165.898C598.633 164.492 599.102 163.414 600.039 162.664C601.023 161.914 602.078 161.539 603.203 161.539C604.328 161.539 605.359 161.891 606.297 162.594C607.234 163.297 607.727 164.375 607.773 165.828C607.82 166.766 607.844 167.961 607.844 169.414C607.844 171.992 607.797 174.922 607.703 178.203C607.609 181.484 607.516 184.602 607.422 187.555C607.328 190.461 607.258 192.641 607.211 194.094L617.828 194.164C619.281 194.164 620.383 194.656 621.133 195.641C621.883 196.625 622.258 197.68 622.258 198.805C622.258 199.93 621.883 200.961 621.133 201.898C620.43 202.836 619.352 203.305 617.898 203.305C617.852 203.305 617.828 203.305 617.828 203.305C616 203.305 614.172 203.305 612.344 203.305C610.562 203.258 608.758 203.234 606.93 203.234C606.836 207.453 606.789 211.438 606.789 215.188C606.789 232.156 607.938 244.086 610.234 250.977C611.312 254.117 612.438 255.992 613.609 256.602C614.312 256.977 614.898 257.539 615.367 258.289C615.883 259.039 616.141 259.859 616.141 260.75ZM636.461 177.57C636.461 175.836 636.977 174.172 638.008 172.578C639.086 170.938 640.398 169.625 641.945 168.641C643.492 167.609 645.016 167.094 646.516 167.094C648.719 167.094 650.57 168.031 652.07 169.906C653.617 171.734 654.391 173.562 654.391 175.391C654.391 177.125 653.852 178.719 652.773 180.172C651.695 181.625 650.242 182.68 648.414 183.336C646.352 184.367 644.523 184.883 642.93 184.883C641.195 184.883 639.672 184.18 638.359 182.773C637.094 181.32 636.461 179.586 636.461 177.57ZM647.852 251.539C647.711 255.289 647.195 258.289 646.305 260.539C645.414 262.742 643.867 263.844 641.664 263.844C640.445 263.844 639.367 263.398 638.43 262.508C637.492 261.617 637.023 260.516 637.023 259.203C637.023 258.594 637.141 257.984 637.375 257.375C637.797 256.391 638.125 254.445 638.359 251.539C638.641 248.586 638.852 245.117 638.992 241.133C639.133 237.148 639.227 233.047 639.273 228.828C639.367 224.562 639.414 220.602 639.414 216.945C639.414 213.289 639.414 210.383 639.414 208.227C639.414 204.242 639.391 200.422 639.344 196.766C639.344 195.266 639.812 194.141 640.75 193.391C641.734 192.641 642.812 192.266 643.984 192.266C645.109 192.266 646.117 192.641 647.008 193.391C647.945 194.094 648.414 195.172 648.414 196.625C648.461 199.109 648.484 201.547 648.484 203.938C648.531 206.328 648.555 208.672 648.555 210.969C648.555 218.609 648.508 225.523 648.414 231.711C648.367 237.898 648.18 244.508 647.852 251.539ZM677.664 235.719C677.664 241.484 679.328 246.102 682.656 249.57C686.031 253.039 690.836 254.773 697.07 254.773C702.461 254.773 708.812 253.461 716.125 250.836C716.641 250.648 717.18 250.555 717.742 250.555C718.961 250.555 720.016 251 720.906 251.891C721.844 252.734 722.312 253.766 722.312 254.984C722.312 256.062 722.008 257 721.398 257.797C720.789 258.594 720.062 259.133 719.219 259.414C710.875 262.461 703.469 263.984 697 263.984C689.828 263.984 683.945 262.297 679.352 258.922C674.758 255.5 671.664 251.141 670.07 245.844C669.039 242.422 668.523 238.977 668.523 235.508C668.523 230.773 669.461 225.945 671.336 221.023C673.07 216.43 675.555 212.094 678.789 208.016C682.07 203.938 686.031 200.633 690.672 198.102C695.359 195.523 700.633 194.234 706.492 194.234C710.336 194.234 714.32 194.867 718.445 196.133C719.523 196.461 720.297 197.023 720.766 197.82C721.281 198.57 721.539 199.391 721.539 200.281C721.539 201.453 721.141 202.555 720.344 203.586C719.594 204.57 718.562 205.062 717.25 205.062C716.781 205.062 716.312 204.992 715.844 204.852C712.844 203.961 709.914 203.516 707.055 203.516C702.555 203.516 698.5 204.5 694.891 206.469C691.328 208.391 688.281 210.922 685.75 214.062C683.219 217.156 681.273 220.508 679.914 224.117C678.414 228.102 677.664 231.969 677.664 235.719ZM736.305 211.531C736.305 207.172 737.453 203.516 739.75 200.562C742.047 197.562 745.023 195.312 748.68 193.812C752.336 192.312 756.227 191.562 760.352 191.562C773.758 191.562 784.938 195.828 793.891 204.359C794.828 205.25 795.297 206.305 795.297 207.523C795.297 208.695 794.875 209.75 794.031 210.688C793.234 211.625 792.18 212.117 790.867 212.164C789.555 212.164 788.477 211.766 787.633 210.969C784.961 208.391 781.352 206.047 776.805 203.938C772.305 201.781 767.711 200.703 763.023 200.703C753.367 200.703 747.672 203.328 745.938 208.578C745.562 209.703 745.375 210.781 745.375 211.812C745.375 214.625 746.688 217.227 749.312 219.617C752.219 222.289 757.094 223.625 763.938 223.625C765.062 223.625 766.258 223.578 767.523 223.484C768.789 223.391 770.055 223.344 771.32 223.344C777.367 223.344 782.266 224.258 786.016 226.086C789.766 227.867 792.625 230.727 794.594 234.664C795.859 237.289 796.492 239.844 796.492 242.328C796.492 243.453 796.375 244.578 796.141 245.703C794.594 252.547 790.352 257.539 783.414 260.68C779.055 262.695 774.438 263.703 769.562 263.703C768.578 263.703 767.57 263.656 766.539 263.562C755.43 262.531 746.195 258.781 738.836 252.312C737.805 251.422 737.289 250.273 737.289 248.867C737.289 247.602 737.734 246.547 738.625 245.703C739.562 244.812 740.641 244.367 741.859 244.367C743.031 244.367 744.039 244.719 744.883 245.422C748.164 248.281 751.82 250.508 755.852 252.102C759.883 253.695 764.5 254.492 769.703 254.492C776.219 254.492 781.188 252.617 784.609 248.867C786.484 246.805 787.422 244.695 787.422 242.539C787.422 241.273 787.094 239.984 786.438 238.672C784.422 234.547 780.156 232.484 773.641 232.484C772.234 232.484 770.781 232.531 769.281 232.625C767.781 232.672 766.422 232.695 765.203 232.695C759.625 232.695 755.5 232.344 752.828 231.641C749.125 230.656 745.844 228.852 742.984 226.227C740.125 223.602 738.156 220.461 737.078 216.805C736.562 215.07 736.305 213.312 736.305 211.531Z" fill="#080808" fill-opacity="0.08"/>
<path d="M19.9609 118.156C22.6797 118.156 24.9297 119.234 26.7109 121.391C33.4609 129.547 38.3828 142.109 41.4766 159.078C54.2266 136.016 70.6797 123.031 90.8359 120.125C94.0234 119.656 97.1641 119.422 100.258 119.422C111.508 119.422 121.445 122 130.07 127.156C138.695 132.312 145.773 139.109 151.305 147.547C156.836 155.984 160.586 165.078 162.555 174.828C163.867 181.109 164.523 187.531 164.523 194.094C164.523 214.812 157.914 236.703 144.695 259.766C143.008 262.672 140.43 264.125 136.961 264.125C134.055 264.125 131.43 262.766 129.086 260.047C126.836 257.234 126.742 254.094 128.805 250.625C140.43 230.375 146.242 211.484 146.242 193.953C146.242 188.703 145.727 183.594 144.695 178.625C143.195 171.406 140.43 164.703 136.398 158.516C132.461 152.328 127.398 147.359 121.211 143.609C115.117 139.766 108.086 137.844 100.117 137.844C97.9609 137.844 95.7578 137.984 93.5078 138.266C84.2266 139.578 76.3047 143.656 69.7422 150.5C63.1797 157.344 57.8828 165.641 53.8516 175.391C49.9141 185.047 47.0547 194.891 45.2734 204.922C45.2734 206.141 45.2734 207.359 45.2734 208.578C45.2734 222.078 44.5703 235.672 43.1641 249.359L42.6016 254.844C42.3203 257.469 41.2891 259.438 39.5078 260.75C37.7266 261.969 35.8047 262.578 33.7422 262.578C31.4922 262.578 29.3828 261.875 27.4141 260.469C25.5391 259.062 24.5547 256.953 24.4609 254.141C24.2734 249.922 24.1797 245.797 24.1797 241.766C24.1797 227.984 25.1172 215.281 26.9922 203.656C26.6172 182.094 24.9297 165.922 21.9297 155.141C19.0234 144.453 16.3516 137.609 13.9141 134.609C11.6641 131.797 10.5391 129.312 10.5391 127.156C10.5391 124.438 11.5234 122.281 13.4922 120.688C15.4609 119 17.6172 118.156 19.9609 118.156ZM195.742 239.164C197.102 244.039 199.727 247.859 203.617 250.625C207.555 253.391 212.5 254.773 218.453 254.773C226.422 254.773 235.68 252.172 246.227 246.969C246.883 246.641 247.562 246.477 248.266 246.477C249.484 246.477 250.539 246.898 251.43 247.742C252.367 248.586 252.836 249.641 252.836 250.906C252.836 252.922 251.992 254.352 250.305 255.195C244.961 257.82 239.523 259.93 233.992 261.523C228.461 263.117 223.117 263.914 217.961 263.914C212.664 263.914 207.719 262.93 203.125 260.961C198.578 258.992 194.688 255.711 191.453 251.117C189.625 248.539 188.219 245.797 187.234 242.891C186.25 239.984 185.758 236.727 185.758 233.117C185.758 231.523 185.852 229.859 186.039 228.125C187.117 219.172 190.844 211.508 197.219 205.133C205.469 196.883 216.32 192.758 229.773 192.758C234.93 192.758 239.453 193.766 243.344 195.781C247.234 197.75 250 200.562 251.641 204.219C252.531 206.234 252.977 208.367 252.977 210.617C252.977 214.461 251.969 217.859 249.953 220.812C247.984 223.719 245.172 226.414 241.516 228.898C231.25 235.836 216.367 239.305 196.867 239.305C196.586 239.305 196.211 239.258 195.742 239.164ZM194.969 230.586C195.625 230.305 196.258 230.164 196.867 230.164C214.539 230.164 227.734 227.211 236.453 221.305C238.891 219.664 240.742 218 242.008 216.312C243.273 214.578 243.906 212.586 243.906 210.336C243.906 209.023 243.602 207.969 242.992 207.172C242.43 206.375 241.68 205.625 240.742 204.922C238.117 202.906 234.484 201.898 229.844 201.898C223.609 201.898 217.938 203.07 212.828 205.414C207.719 207.711 203.57 211.016 200.383 215.328C197.242 219.594 195.438 224.68 194.969 230.586ZM271.82 263.562C270.508 263.562 269.383 262.93 268.445 261.664C267.508 260.352 267.039 259.18 267.039 258.148C267.039 257.258 267.18 256.344 267.461 255.406C267.789 254.469 267.977 253.578 268.023 252.734C268.164 250.156 268.422 246.688 268.797 242.328C269.172 237.922 269.359 233.656 269.359 229.531C269.359 226.531 269.312 223.273 269.219 219.758C268.938 209.398 268.516 203.094 267.953 200.844C267.719 199.859 267.602 198.969 267.602 198.172C267.602 196.812 267.977 195.711 268.727 194.867C269.523 193.977 270.625 193.531 272.031 193.531C273.109 193.531 274.047 193.883 274.844 194.586C275.641 195.289 276.156 196.086 276.391 196.977C277.422 200.867 278.031 206.844 278.219 214.906C285.062 201.453 294.32 194 305.992 192.547C306.18 192.547 306.367 192.547 306.555 192.547C307.961 192.547 309.039 193.062 309.789 194.094C310.586 195.078 310.984 196.156 310.984 197.328C310.984 198.359 310.68 199.297 310.07 200.141C309.461 200.984 308.477 201.477 307.117 201.617C295.211 203.117 286.445 213.781 280.82 233.609C279.461 238.438 278.43 243.406 277.727 248.516C277.586 250.625 277.445 252.289 277.305 253.508C277.211 254.727 277.164 255.875 277.164 256.953C277.164 257.562 277.211 258.055 277.305 258.43C277.398 258.805 277.445 259.133 277.445 259.414C277.445 260.445 276.742 261.406 275.336 262.297C273.977 263.141 272.805 263.562 271.82 263.562ZM394.094 233.047C394.094 236.516 394.258 240.289 394.586 244.367C394.914 248.398 395.078 251.961 395.078 255.055C395.078 256.883 394.703 258.477 393.953 259.836C393.25 261.148 391.961 261.805 390.086 261.805C388.82 261.805 387.789 261.312 386.992 260.328C386.195 259.344 385.75 258.219 385.656 256.953C385.562 255.734 385.469 254.305 385.375 252.664C385.281 251.023 385.188 249.195 385.094 247.18C378.578 257.492 370.258 262.648 360.133 262.648C353.336 262.648 347.312 261.148 342.062 258.148C336.859 255.148 332.758 251 329.758 245.703C326.805 240.359 325.328 234.219 325.328 227.281C325.328 222.031 326.219 216.922 328 211.953C329.781 206.938 332.195 202.602 335.242 198.945C340.211 192.945 346.609 189.945 354.438 189.945C355.281 189.945 356.148 189.969 357.039 190.016C366.039 190.719 375.203 195.945 384.531 205.695C384.531 202.789 384.531 199.391 384.531 195.5C384.531 191.562 384.555 187.156 384.602 182.281L384.742 165.125C384.742 163.672 385.211 162.57 386.148 161.82C387.133 161.07 388.188 160.695 389.312 160.695C390.484 160.695 391.539 161.07 392.477 161.82C393.414 162.57 393.883 163.695 393.883 165.195L393.742 182.422C393.695 188.75 393.648 194.516 393.602 199.719C393.602 204.875 393.602 209.469 393.602 213.5C393.602 218.609 393.625 222.688 393.672 225.734C393.953 226.578 394.094 228.055 394.094 230.164C394.094 230.633 394.094 231.102 394.094 231.57C394.094 232.039 394.094 232.531 394.094 233.047ZM360.203 253.508C369.812 253.508 377.406 245.844 382.984 230.516C383.359 229.531 383.664 228.688 383.898 227.984C384.133 227.281 384.344 226.695 384.531 226.227V219.828C374.359 206.75 364.867 199.836 356.055 199.086C355.633 199.039 355.211 199.016 354.789 199.016C350.664 199.016 347.078 200.398 344.031 203.164C340.984 205.883 338.641 209.375 337 213.641C335.359 217.859 334.539 222.266 334.539 226.859C334.539 234.734 336.836 241.156 341.43 246.125C346.023 251.047 352.281 253.508 360.203 253.508ZM471.297 214.133C471.438 214.648 471.508 215.188 471.508 215.75C471.508 216.828 471.297 218.07 470.875 219.477C470.172 226.883 469.82 233.492 469.82 239.305C469.82 247.414 470.5 254 471.859 259.062C472 259.531 472.07 259.977 472.07 260.398C472.07 261.711 471.555 262.742 470.523 263.492C469.539 264.289 468.461 264.688 467.289 264.688C466.398 264.688 465.555 264.43 464.758 263.914C463.961 263.398 463.398 262.555 463.07 261.383C461.617 255.992 460.844 249.148 460.75 240.852C456.297 248.023 451.516 253.672 446.406 257.797C443.312 260.281 440.125 261.688 436.844 262.016C434.875 262.578 432.953 262.859 431.078 262.859C428.406 262.859 425.969 262.367 423.766 261.383C421.562 260.398 419.664 259.156 418.07 257.656C415.211 254.984 412.984 251.539 411.391 247.32C409.844 243.055 409.07 238.133 409.07 232.555C409.07 225.383 410.734 218.539 414.062 212.023C418.938 202.461 426.344 196.086 436.281 192.898C440.078 191.633 443.734 191 447.25 191C451.656 191 455.805 192.031 459.695 194.094C466.492 197.703 470.359 204.383 471.297 214.133ZM462.156 214.766C461.734 210.266 460.258 206.703 457.727 204.078C455.242 201.453 451.844 200.141 447.531 200.141C444.953 200.141 442.141 200.633 439.094 201.617C431.547 204.008 426.039 208.625 422.57 215.469C419.664 221.234 418.211 226.977 418.211 232.695C418.211 236.727 418.75 240.336 419.828 243.523C420.906 246.711 422.289 249.102 423.977 250.695C426.086 252.664 428.477 253.648 431.148 253.648C432.039 253.648 432.883 253.555 433.68 253.367C434.523 253.133 435.461 252.969 436.492 252.875C437.289 252.781 438.859 251.82 441.203 249.992C443.547 248.117 446.031 245.469 448.656 242.047C451.328 238.625 453.836 234.781 456.18 230.516C458.523 226.25 460.422 221.961 461.875 217.648C461.922 217.18 461.969 216.711 462.016 216.242C462.062 215.727 462.109 215.234 462.156 214.766ZM493.305 159.711C494.477 159.711 495.508 160.203 496.398 161.188C497.336 162.125 497.758 163.227 497.664 164.492C496.867 183.945 496.258 200.422 495.836 213.922C495.414 227.422 495.203 237.969 495.203 245.562C495.203 252.172 495.367 256.531 495.695 258.641C495.742 258.922 495.766 259.18 495.766 259.414C495.766 260.82 495.273 261.898 494.289 262.648C493.305 263.398 492.227 263.773 491.055 263.773C490.07 263.773 489.133 263.469 488.242 262.859C487.398 262.25 486.883 261.289 486.695 259.977C486.32 257.586 486.133 252.688 486.133 245.281C486.133 229.531 486.953 202.461 488.594 164.07C488.641 162.852 489.133 161.82 490.07 160.977C491.055 160.133 492.133 159.711 493.305 159.711ZM563.688 197.82L564.531 208.367C565.047 216.852 565.305 224.82 565.305 232.273C565.305 263.633 560.758 285.523 551.664 297.945C549.273 301.227 546.531 303.641 543.438 305.188C540.391 306.734 537.133 307.508 533.664 307.508C529.164 307.508 524.406 306.289 519.391 303.852C517.797 303.055 517 301.672 517 299.703C517 298.344 517.633 297.125 518.898 296.047C520.164 294.969 521.688 294.828 523.469 295.625C527.172 297.5 530.5 298.438 533.453 298.438C535.516 298.438 537.391 297.992 539.078 297.102C542.312 295.414 544.984 292.391 547.094 288.031C549.25 283.672 550.961 278.516 552.227 272.562C553.539 266.609 554.477 260.398 555.039 253.93C555.648 247.414 556 241.18 556.094 235.227C555.016 238.227 553.633 241.391 551.945 244.719C550.258 248 548.266 251.094 545.969 254C543.719 256.906 541.211 259.273 538.445 261.102C535.727 262.93 532.75 263.844 529.516 263.844C525.672 263.844 522.414 262.648 519.742 260.258C517.117 257.82 514.891 254.375 513.062 249.922C509.828 242.141 508.211 231.875 508.211 219.125C508.211 212.234 508.68 204.641 509.617 196.344C509.758 195.031 510.273 194.07 511.164 193.461C512.055 192.805 513.039 192.477 514.117 192.477C515.242 192.477 516.273 192.852 517.211 193.602C518.195 194.305 518.688 195.383 518.688 196.836C518.688 197.023 518.688 197.211 518.688 197.398C517.797 205.461 517.352 212.75 517.352 219.266C517.352 230.75 518.734 239.844 521.5 246.547C523.75 252.031 526.445 254.773 529.586 254.773C532.445 254.773 535.656 252.477 539.219 247.883C547.422 237.242 552.531 220.602 554.547 197.961C554.641 196.648 555.133 195.664 556.023 195.008C556.961 194.305 557.969 193.953 559.047 193.953C560.125 193.953 561.109 194.281 562 194.938C562.938 195.594 563.5 196.555 563.688 197.82ZM616.141 260.75C616.141 262.016 615.672 263.094 614.734 263.984C613.797 264.875 612.719 265.32 611.5 265.32C610.75 265.32 610.047 265.133 609.391 264.758C603.344 261.523 599.688 252.688 598.422 238.25C598.141 235.109 597.93 231.734 597.789 228.125C597.648 224.469 597.578 220.555 597.578 216.383C597.578 212.352 597.648 207.945 597.789 203.164C595.492 203.164 593.195 203.164 590.898 203.164C588.602 203.117 586.281 203.094 583.938 203.094C582.719 203.094 581.641 202.625 580.703 201.688C579.812 200.703 579.367 199.602 579.367 198.383C579.367 197.258 579.812 196.25 580.703 195.359C581.641 194.422 582.719 193.953 583.938 193.953L598.07 194.023C598.117 192.617 598.188 190.461 598.281 187.555C598.375 184.648 598.469 181.555 598.562 178.273C598.656 174.992 598.703 172.109 598.703 169.625C598.703 168.875 598.68 168.195 598.633 167.586C598.633 166.977 598.633 166.414 598.633 165.898C598.633 164.492 599.102 163.414 600.039 162.664C601.023 161.914 602.078 161.539 603.203 161.539C604.328 161.539 605.359 161.891 606.297 162.594C607.234 163.297 607.727 164.375 607.773 165.828C607.82 166.766 607.844 167.961 607.844 169.414C607.844 171.992 607.797 174.922 607.703 178.203C607.609 181.484 607.516 184.602 607.422 187.555C607.328 190.461 607.258 192.641 607.211 194.094L617.828 194.164C619.281 194.164 620.383 194.656 621.133 195.641C621.883 196.625 622.258 197.68 622.258 198.805C622.258 199.93 621.883 200.961 621.133 201.898C620.43 202.836 619.352 203.305 617.898 203.305C617.852 203.305 617.828 203.305 617.828 203.305C616 203.305 614.172 203.305 612.344 203.305C610.562 203.258 608.758 203.234 606.93 203.234C606.836 207.453 606.789 211.438 606.789 215.188C606.789 232.156 607.938 244.086 610.234 250.977C611.312 254.117 612.438 255.992 613.609 256.602C614.312 256.977 614.898 257.539 615.367 258.289C615.883 259.039 616.141 259.859 616.141 260.75ZM636.461 177.57C636.461 175.836 636.977 174.172 638.008 172.578C639.086 170.938 640.398 169.625 641.945 168.641C643.492 167.609 645.016 167.094 646.516 167.094C648.719 167.094 650.57 168.031 652.07 169.906C653.617 171.734 654.391 173.562 654.391 175.391C654.391 177.125 653.852 178.719 652.773 180.172C651.695 181.625 650.242 182.68 648.414 183.336C646.352 184.367 644.523 184.883 642.93 184.883C641.195 184.883 639.672 184.18 638.359 182.773C637.094 181.32 636.461 179.586 636.461 177.57ZM647.852 251.539C647.711 255.289 647.195 258.289 646.305 260.539C645.414 262.742 643.867 263.844 641.664 263.844C640.445 263.844 639.367 263.398 638.43 262.508C637.492 261.617 637.023 260.516 637.023 259.203C637.023 258.594 637.141 257.984 637.375 257.375C637.797 256.391 638.125 254.445 638.359 251.539C638.641 248.586 638.852 245.117 638.992 241.133C639.133 237.148 639.227 233.047 639.273 228.828C639.367 224.562 639.414 220.602 639.414 216.945C639.414 213.289 639.414 210.383 639.414 208.227C639.414 204.242 639.391 200.422 639.344 196.766C639.344 195.266 639.812 194.141 640.75 193.391C641.734 192.641 642.812 192.266 643.984 192.266C645.109 192.266 646.117 192.641 647.008 193.391C647.945 194.094 648.414 195.172 648.414 196.625C648.461 199.109 648.484 201.547 648.484 203.938C648.531 206.328 648.555 208.672 648.555 210.969C648.555 218.609 648.508 225.523 648.414 231.711C648.367 237.898 648.18 244.508 647.852 251.539ZM677.664 235.719C677.664 241.484 679.328 246.102 682.656 249.57C686.031 253.039 690.836 254.773 697.07 254.773C702.461 254.773 708.812 253.461 716.125 250.836C716.641 250.648 717.18 250.555 717.742 250.555C718.961 250.555 720.016 251 720.906 251.891C721.844 252.734 722.312 253.766 722.312 254.984C722.312 256.062 722.008 257 721.398 257.797C720.789 258.594 720.062 259.133 719.219 259.414C710.875 262.461 703.469 263.984 697 263.984C689.828 263.984 683.945 262.297 679.352 258.922C674.758 255.5 671.664 251.141 670.07 245.844C669.039 242.422 668.523 238.977 668.523 235.508C668.523 230.773 669.461 225.945 671.336 221.023C673.07 216.43 675.555 212.094 678.789 208.016C682.07 203.938 686.031 200.633 690.672 198.102C695.359 195.523 700.633 194.234 706.492 194.234C710.336 194.234 714.32 194.867 718.445 196.133C719.523 196.461 720.297 197.023 720.766 197.82C721.281 198.57 721.539 199.391 721.539 200.281C721.539 201.453 721.141 202.555 720.344 203.586C719.594 204.57 718.562 205.062 717.25 205.062C716.781 205.062 716.312 204.992 715.844 204.852C712.844 203.961 709.914 203.516 707.055 203.516C702.555 203.516 698.5 204.5 694.891 206.469C691.328 208.391 688.281 210.922 685.75 214.062C683.219 217.156 681.273 220.508 679.914 224.117C678.414 228.102 677.664 231.969 677.664 235.719ZM736.305 211.531C736.305 207.172 737.453 203.516 739.75 200.562C742.047 197.562 745.023 195.312 748.68 193.812C752.336 192.312 756.227 191.562 760.352 191.562C773.758 191.562 784.938 195.828 793.891 204.359C794.828 205.25 795.297 206.305 795.297 207.523C795.297 208.695 794.875 209.75 794.031 210.688C793.234 211.625 792.18 212.117 790.867 212.164C789.555 212.164 788.477 211.766 787.633 210.969C784.961 208.391 781.352 206.047 776.805 203.938C772.305 201.781 767.711 200.703 763.023 200.703C753.367 200.703 747.672 203.328 745.938 208.578C745.562 209.703 745.375 210.781 745.375 211.812C745.375 214.625 746.688 217.227 749.312 219.617C752.219 222.289 757.094 223.625 763.938 223.625C765.062 223.625 766.258 223.578 767.523 223.484C768.789 223.391 770.055 223.344 771.32 223.344C777.367 223.344 782.266 224.258 786.016 226.086C789.766 227.867 792.625 230.727 794.594 234.664C795.859 237.289 796.492 239.844 796.492 242.328C796.492 243.453 796.375 244.578 796.141 245.703C794.594 252.547 790.352 257.539 783.414 260.68C779.055 262.695 774.438 263.703 769.562 263.703C768.578 263.703 767.57 263.656 766.539 263.562C755.43 262.531 746.195 258.781 738.836 252.312C737.805 251.422 737.289 250.273 737.289 248.867C737.289 247.602 737.734 246.547 738.625 245.703C739.562 244.812 740.641 244.367 741.859 244.367C743.031 244.367 744.039 244.719 744.883 245.422C748.164 248.281 751.82 250.508 755.852 252.102C759.883 253.695 764.5 254.492 769.703 254.492C776.219 254.492 781.188 252.617 784.609 248.867C786.484 246.805 787.422 244.695 787.422 242.539C787.422 241.273 787.094 239.984 786.438 238.672C784.422 234.547 780.156 232.484 773.641 232.484C772.234 232.484 770.781 232.531 769.281 232.625C767.781 232.672 766.422 232.695 765.203 232.695C759.625 232.695 755.5 232.344 752.828 231.641C749.125 230.656 745.844 228.852 742.984 226.227C740.125 223.602 738.156 220.461 737.078 216.805C736.562 215.07 736.305 213.312 736.305 211.531Z" fill="url(#paint0_linear_147_17)"/>
</g>
<defs>
<filter id="filter0_d_147_17" x="8.08594" y="118.156" width="790.859" height="194.82" filterUnits="userSpaceOnUse" color-interpolation-filters="sRGB">
<feFlood flood-opacity="0" result="BackgroundImageFix"/>
<feColorMatrix in="SourceAlpha" type="matrix" values="0 0 0 0 0 0 0 0 0 0 0 0 0 0 0 0 0 0 127 0" result="hardAlpha"/>
<feOffset dy="3.01562"/>
<feGaussianBlur stdDeviation="1.22656"/>
<feColorMatrix type="matrix" values="0 0 0 0 0.768627 0 0 0 0 0.768627 0 0 0 0 0.768627 0 0 0 0.8 0"/>
<feBlend mode="normal" in2="BackgroundImageFix" result="effect1_dropShadow_147_17"/>
<feBlend mode="normal" in="SourceGraphic" in2="effect1_dropShadow_147_17" result="shape"/>
</filter>
<linearGradient id="paint0_linear_147_17" x1="400" y1="52" x2="400" y2="368" gradientUnits="userSpaceOnUse">
<stop stop-color="#161616"/>
<stop offset="1" stop-color="white" stop-opacity="0"/>
</linearGradient>
</defs>
</svg>
